<svg width="92" height="13" fill="none" xmlns="http://www.w3.org/2000/svg"><path d="M10.88 11H8.81V4.295l-3.165 3.93-3.15-3.93V11H.425V.5h1.23l3.99 5.01L9.65.5h1.23V11zm3.412-9.03c1.04-1.05 2.3-1.575 3.78-1.575s2.74.525 3.78 1.575c1.05 1.04 1.575 2.3 1.575 3.78s-.525 2.745-1.575 3.795c-1.04 1.04-2.3 1.56-3.78 1.56s-2.74-.52-3.78-1.56c-1.04-1.05-1.56-2.315-1.56-3.795s.52-2.74 1.56-3.78zm6.12 1.335c-.63-.64-1.41-.96-2.34-.96-.93 0-1.71.32-2.34.96-.62.64-.93 1.455-.93 2.445 0 1 .31 1.82.93 2.46.63.63 1.41.945 2.34.945.94 0 1.72-.315 2.34-.945.63-.64.945-1.46.945-2.46 0-.99-.315-1.805-.945-2.445zm14.397 9.63h-2.07V11h-6.84v1.935h-2.07V9.05h1.395L28.734.5h1.23l3.465 8.55h1.38v3.885zm-5.49-8.64L27.444 9.05h3.765l-1.89-4.755zm9.1.45h4.544v1.95h-4.545V9.05h4.92V11h-6.99V.5h6.99v1.95h-4.92v2.295zM45.268.5h3.45c1.44 0 2.58.38 3.42 1.14.84.75 1.26 1.715 1.26 2.895 0 1.19-.42 2.165-1.26 2.925-.84.75-1.98 1.125-3.42 1.125h-1.38V11h-2.07V.5zm2.07 6.135h1.546c.73 0 1.335-.175 1.815-.525.49-.35.735-.875.735-1.575 0-.67-.245-1.185-.735-1.545-.49-.36-1.095-.54-1.815-.54H47.34v4.185zm9.04 2.445L55.63 11h-2.294L57.654.5h1.215L63.13 11h-2.296l-.75-1.92H56.38zm1.86-4.83L57.1 7.115h2.266L58.239 4.25zm9.333-1.8V11h-2.07V2.45h-2.88V.5h7.83v1.95h-2.88zm5.244-.48c1.04-1.05 2.3-1.575 3.78-1.575s2.74.525 3.78 1.575c1.05 1.04 1.575 2.3 1.575 3.78s-.525 2.745-1.575 3.795c-1.04 1.04-2.3 1.56-3.78 1.56s-2.74-.52-3.78-1.56c-1.04-1.05-1.56-2.315-1.56-3.795s.52-2.74 1.56-3.78zm6.12 1.335c-.63-.64-1.41-.96-2.34-.96-.93 0-1.71.32-2.34.96-.62.64-.93 1.455-.93 2.445 0 1 .31 1.82.93 2.46.63.63 1.41.945 2.34.945.94 0 1.72-.315 2.34-.945.63-.64.945-1.46.945-2.46 0-.99-.315-1.805-.945-2.445zM83.797.5h3.45c1.44 0 2.58.38 3.42 1.14.84.75 1.26 1.715 1.26 2.895 0 1.19-.42 2.165-1.26 2.925-.84.75-1.98 1.125-3.42 1.125h-1.38V11h-2.07V.5zm2.07 6.135h1.545c.73 0 1.335-.175 1.816-.525.49-.35.735-.875.735-1.575 0-.67-.245-1.185-.735-1.545-.49-.36-1.096-.54-1.816-.54h-1.544v4.185z" fill="#545454"/></svg>