<svg width="16" height="16" fill="none" xmlns="http://www.w3.org/2000/svg"><path d="M8 0a7.859 7.859 0 00-4.016 1.07A7.9 7.9 0 001.07 3.984 7.859 7.859 0 000 8c0 1.448.357 2.787 1.07 4.016a7.9 7.9 0 002.914 2.914A7.86 7.86 0 008 16a7.859 7.859 0 004.016-1.07 7.9 7.9 0 002.914-2.914A7.859 7.859 0 0016 8a7.86 7.86 0 00-1.07-4.016 7.9 7.9 0 00-2.914-2.914A7.858 7.858 0 008 0zm0 15.016c-.76 0-1.497-.118-2.21-.352a6.488 6.488 0 01-1.93-1.008 7.839 7.839 0 01-1.508-1.515 6.593 6.593 0 01-1-1.93A7.04 7.04 0 011 8c0-.948.185-1.854.555-2.719.37-.864.867-1.61 1.492-2.234A7.032 7.032 0 015.28 1.555 6.843 6.843 0 018 1c.948 0 1.854.185 2.719.555.864.37 1.61.867 2.234 1.492a7.032 7.032 0 011.492 2.234C14.815 6.146 15 7.052 15 8s-.185 1.854-.555 2.719a7.127 7.127 0 01-1.492 2.242 6.967 6.967 0 01-2.234 1.5A6.842 6.842 0 018 15.016zM11.5 7.5h-3v-3a.48.48 0 00-.148-.352A.48.48 0 008 4a.48.48 0 00-.352.148.48.48 0 00-.148.352v3h-3a.48.48 0 00-.352.148A.48.48 0 004 8c0 .135.05.253.148.352A.48.48 0 004.5 8.5h3v3c0 .135.05.253.148.352A.48.48 0 008 12a.48.48 0 00.352-.148.48.48 0 00.148-.352v-3h3a.48.48 0 00.352-.148A.48.48 0 0012 8a.48.48 0 00-.148-.352.48.48 0 00-.352-.148z" fill="#646464"/></svg>