<svg width="15" height="15" fill="none" xmlns="http://www.w3.org/2000/svg"><path d="M7.5 0a7.368 7.368 0 00-3.765 1.003 7.406 7.406 0 00-2.732 2.732A7.368 7.368 0 000 7.5a7.37 7.37 0 001.003 3.765 7.407 7.407 0 002.732 2.732A7.368 7.368 0 007.5 15a7.368 7.368 0 003.765-1.003 7.407 7.407 0 002.732-2.732A7.368 7.368 0 0015 7.5a7.368 7.368 0 00-1.003-3.765 7.407 7.407 0 00-2.732-2.732A7.367 7.367 0 007.5 0zm0 14.077a6.6 6.6 0 01-2.073-.33 6.085 6.085 0 01-1.809-.944 7.35 7.35 0 01-1.413-1.421 6.181 6.181 0 01-.938-1.81A6.6 6.6 0 01.937 7.5c0-.889.174-1.738.52-2.549a6.592 6.592 0 011.4-2.095A6.592 6.592 0 014.95 1.458c.81-.347 1.66-.52 2.549-.52s1.738.173 2.549.52c.81.346 1.509.813 2.095 1.398a6.593 6.593 0 011.399 2.095c.346.81.52 1.66.52 2.549s-.174 1.738-.52 2.549a6.681 6.681 0 01-1.4 2.102 6.532 6.532 0 01-2.094 1.406c-.81.347-1.66.52-2.549.52zm2.651-9.228a.447.447 0 00-.33-.132.447.447 0 00-.329.132L7.5 6.84 5.508 4.849a.447.447 0 00-.33-.132.447.447 0 00-.461.461c0 .132.044.242.132.33L6.84 7.5 4.849 9.492a.495.495 0 00-.125.205.408.408 0 000 .242.49.49 0 00.125.212.447.447 0 00.33.132.447.447 0 00.329-.132L7.5 8.16l1.992 1.992a.447.447 0 00.33.132.447.447 0 00.33-.132.49.49 0 00.124-.212.408.408 0 000-.242.495.495 0 00-.125-.205L8.16 7.5l1.992-1.992a.447.447 0 00.132-.33.447.447 0 00-.132-.33z" fill="#fff"/></svg>