<svg width="12" height="12" fill="none" xmlns="http://www.w3.org/2000/svg"><path d="M6 0C4.914 0 3.91.268 2.988.803A5.925 5.925 0 00.803 2.988 5.894 5.894 0 000 6c0 1.086.268 2.09.803 3.012a5.926 5.926 0 002.185 2.185A5.895 5.895 0 006 12c1.086 0 2.09-.268 3.012-.803a5.926 5.926 0 002.185-2.185A5.895 5.895 0 0012 6c0-1.086-.268-2.09-.803-3.012A5.926 5.926 0 009.012.803 5.894 5.894 0 006 0zm0 11.262a5.28 5.28 0 01-1.658-.264 4.866 4.866 0 01-1.447-.756 5.882 5.882 0 01-1.131-1.137 4.945 4.945 0 01-.75-1.447 5.28 5.28 0 011.271-5.373 5.274 5.274 0 011.676-1.119A5.132 5.132 0 016 .75c.71 0 1.39.139 2.04.416.648.277 1.206.65 1.675 1.12a5.275 5.275 0 011.119 1.675c.277.648.416 1.328.416 2.039 0 .71-.139 1.39-.416 2.04a5.346 5.346 0 01-1.12 1.68 5.223 5.223 0 01-1.675 1.126A5.133 5.133 0 016 11.262zm2.121-7.383a.358.358 0 00-.264-.106.358.358 0 00-.263.106L6 5.473 4.406 3.879a.358.358 0 00-.263-.106.358.358 0 00-.37.37c0 .105.036.193.106.263L5.473 6 3.879 7.594a.396.396 0 00-.1.164.326.326 0 000 .193c.02.067.053.123.1.17.07.07.158.106.264.106a.358.358 0 00.263-.106L6 6.527l1.594 1.594c.07.07.158.106.263.106a.358.358 0 00.264-.106.393.393 0 00.1-.17.326.326 0 000-.193.396.396 0 00-.1-.164L6.527 6l1.594-1.594a.358.358 0 00.106-.263.358.358 0 00-.106-.264z" fill="#626262"/></svg>