<svg width="16" height="16" fill="none" xmlns="http://www.w3.org/2000/svg"><path d="M3.111 3.11H1.333v10.668h13.334V3.11h-1.778m-2.667 0H5.778M4.444 1.333V4m7.112-2.667V4" stroke="#2F8AF2" stroke-linecap="round" stroke-linejoin="round"/><rect x="3.75" y="5.644" width="1.5" height="1.5" rx=".75" fill="#2F8AF2"/><rect x="3.75" y="8.144" width="1.5" height="1.5" rx=".75" fill="#2F8AF2"/><rect x="3.75" y="10.644" width="1.5" height="1.5" rx=".75" fill="#2F8AF2"/><rect x="7.25" y="5.644" width="1.5" height="1.5" rx=".75" fill="#2F8AF2"/><rect x="7.25" y="8.144" width="1.5" height="1.5" rx=".75" fill="#2F8AF2"/><rect x="7.25" y="10.644" width="1.5" height="1.5" rx=".75" fill="#2F8AF2"/><rect x="10.75" y="5.644" width="1.5" height="1.5" rx=".75" fill="#2F8AF2"/><rect x="10.75" y="8.144" width="1.5" height="1.5" rx=".75" fill="#2F8AF2"/><rect x="10.75" y="10.644" width="1.5" height="1.5" rx=".75" fill="#2F8AF2"/></svg>