<svg width="14" height="16" fill="none" xmlns="http://www.w3.org/2000/svg"><path fill-rule="evenodd" clip-rule="evenodd" d="M1.232 1.232A2.5 2.5 0 013 .5h5a.5.5 0 01.354.146l5 5a.5.5 0 01.147.354v7a2.5 2.5 0 01-2.5 2.5H3A2.5 2.5 0 01.5 13V3a2.5 2.5 0 01.732-1.768zM3 1.5A1.5 1.5 0 001.5 3v10A1.5 1.5 0 003 14.5h8a1.5 1.5 0 001.5-1.5V6.5H10A2.5 2.5 0 017.5 4V1.5H3zm5.5.707L11.793 5.5H10A1.5 1.5 0 018.5 4V2.207zM7 6.5a.5.5 0 01.5.5v1.5H9a.5.5 0 010 1H7.5V11a.5.5 0 01-1 0V9.5H5a.5.5 0 010-1h1.5V7a.5.5 0 01.5-.5z" fill="#646464"/></svg>