<svg width="16" height="24" fill="none" xmlns="http://www.w3.org/2000/svg"><path d="M9.946 1.523h.023-.023zm0 0l-1.688 8.883 6.14.024-8.343 12.047 1.688-9.774-6.141-.023L9.946 1.523zm0-1.5h-.117A1.26 1.26 0 009.5.105c-.093.04-.199.098-.316.176a1.542 1.542 0 00-.316.281.183.183 0 00-.036.047.183.183 0 01-.035.047L.383 11.766c-.36.5-.398 1.023-.117 1.57.047.094.105.184.176.27.07.085.148.164.234.234.086.07.18.129.281.176a1.502 1.502 0 00.645.14l4.336.024-1.383 8.039a1.41 1.41 0 00.164.972c.172.305.414.528.727.668a.989.989 0 00.293.094c.101.016.207.024.316.024.453 0 .836-.204 1.149-.61l8.414-12.047c.359-.5.398-1.023.117-1.57-.281-.547-.727-.82-1.336-.82h-4.336l1.36-7.055c.015-.063.027-.121.034-.176a1.33 1.33 0 00-.047-.574 1.694 1.694 0 00-.375-.656 1.21 1.21 0 00-.292-.235 1.771 1.771 0 00-.352-.152 1.251 1.251 0 00-.375-.059h-.07z" fill="#FFCC42"/></svg>