<svg width="16" height="16" fill="none" xmlns="http://www.w3.org/2000/svg"><path d="M3.423 13.62a4 4 0 01-.243.455c-.06.091-.169.195-.326.311a1.599 1.599 0 01-.62.258 5.586 5.586 0 01-1.008.098 6.88 6.88 0 01.068-.826 4.01 4.01 0 01.113-.537.872.872 0 01.205-.349c.096-.101.182-.174.258-.22.075-.045.189-.108.34-.19a5.27 5.27 0 00.94-.56l-.591-.757a6.478 6.478 0 01-.788.454c-.384.192-.674.39-.871.591-.197.202-.356.533-.477.993C.3 13.8.24 14.424.24 15.21l.015.5.47-.014c.626 0 1.146-.03 1.56-.091.414-.06.748-.17 1-.326a2.3 2.3 0 00.576-.477c.131-.162.268-.39.409-.682.152-.313.263-.536.333-.667l-.712-.651a3.361 3.361 0 00-.348.553l-.121.265zm7.5-10.514c-.536 0-.993.19-1.372.568a1.869 1.869 0 00-.568 1.371 1.923 1.923 0 001.94 1.94 1.923 1.923 0 001.939-1.94 1.995 1.995 0 00-.371-1.152 1.812 1.812 0 00-.417-.416 1.998 1.998 0 00-1.152-.371zm-.008 2.909a.916.916 0 01-.682-.288.944.944 0 01-.28-.682c0-.263.093-.49.28-.682a.924.924 0 01.69-.288.968.968 0 01.969.97c0 .263-.096.49-.288.682a.94.94 0 01-.69.288zM15.755.68a.483.483 0 00-.143-.31.483.483 0 00-.311-.144 7.384 7.384 0 00-.59-.015c-.223 0-.45.005-.683.015a15.883 15.883 0 00-1.856.205 12.822 12.822 0 00-2.189.583c-.93.343-1.752.934-2.47 1.773a4.025 4.025 0 00-.53.742c-.09.162-.172.3-.242.417a7.19 7.19 0 00-.265.484 36.3 36.3 0 00-.235.463l-.258.507-.227.447-.106.212-.091.19-.106.204-.091.174-.091.182-.09.16H2.482a.496.496 0 00-.363.15L.347 9.06a.442.442 0 00-.099.462.453.453 0 00.356.326l2.894.667c.122.151.47.545 1.046 1.182l1.09 1.212.592 2.5c.04.182.151.298.333.348.01.01.023.015.038.015a.22.22 0 01.053.008.21.21 0 00.045.008.46.46 0 00.318-.122l1.803-1.787c.02-.02.043-.046.069-.076a.474.474 0 00.06-.091.32.32 0 00.03-.099.7.7 0 00.008-.098v-2.5c.07-.05.16-.106.265-.167a21.923 21.923 0 01.81-.44c.183-.11.561-.315 1.137-.613a30.478 30.478 0 001.417-.773 5.42 5.42 0 00.856-.598c.454-.404.798-.78 1.03-1.129.232-.348.44-.77.621-1.265.152-.414.278-.879.379-1.394.101-.515.17-.98.205-1.394a20.49 20.49 0 00.068-2.151 7.338 7.338 0 01-.015-.41zm-1.545 5a5.348 5.348 0 01-.523 1.076c-.186.283-.472.596-.856.94a5.276 5.276 0 01-.818.56 27.57 27.57 0 01-1.348.728 19.26 19.26 0 00-1.076.575c-.818.455-1.283.727-1.394.819a.27.27 0 00-.076.075.571.571 0 00-.09.19.412.412 0 00-.016.113v2.53l-1.03 1.122-.424-1.834a.533.533 0 00-.121-.212 4505.619 4505.619 0 00-2.334-2.606.844.844 0 00-.128-.106.399.399 0 00-.144-.06l-2.212-.5 1.09-1.152h2.758a.476.476 0 00.303-.114.264.264 0 00.053-.053l.053-.075c.141-.223.389-.692.742-1.41a38.972 38.972 0 00.53-1.053 16.258 16.258 0 01.554-1.03 9.518 9.518 0 01.538-.796c.606-.706 1.298-1.201 2.075-1.484 1.344-.505 2.839-.753 4.485-.743.03 1.86-.167 3.36-.59 4.5z" fill="#626262"/></svg>