<svg width="16" height="16" fill="none" xmlns="http://www.w3.org/2000/svg"><path d="M15.714 12.976L12.88 7.734a5.275 5.275 0 00.455-2.152c0-.97-.24-1.863-.72-2.682A5.312 5.312 0 0010.668.961 5.22 5.22 0 008.002.249 5.262 5.262 0 004.85 1.287c-.434.328-.818.71-1.151 1.144a4.847 4.847 0 00-.765 1.47 5.422 5.422 0 00-.266 1.681c0 .263.018.52.053.773.036.252.089.495.16.727.07.233.156.465.257.697L.29 12.976a.445.445 0 00.037.523c.127.167.29.225.493.174l2.44-.545.833 2.318c.07.192.212.298.424.318h.03a.45.45 0 00.424-.257l2.485-4.622c.182.02.364.03.546.03.05 0 .103-.002.159-.007.055-.005.11-.008.166-.008.056 0 .114-.005.175-.015l2.53 4.622a.45.45 0 00.424.257h.046a.455.455 0 00.409-.318l.833-2.318 2.44.545a.39.39 0 00.272-.007.456.456 0 00.212-.16c.132-.171.147-.348.046-.53zM4.638 14.082l-.606-1.697a.549.549 0 00-.34-.303.463.463 0 00-.236 0l-1.803.41 2.06-3.743a5.261 5.261 0 002.743 1.94l-1.818 3.393zm-1-8.5c0-1.202.427-2.23 1.28-3.083.854-.854 1.882-1.28 3.084-1.28.788 0 1.515.194 2.181.583a4.31 4.31 0 011.584 1.59c.389.673.583 1.402.583 2.19 0 .394-.05.78-.151 1.16a4.182 4.182 0 01-.432 1.045 4.226 4.226 0 01-.69.879 4.425 4.425 0 01-1.924 1.121 4.197 4.197 0 01-1.151.159 4.252 4.252 0 01-2.19-.591 4.369 4.369 0 01-1.59-1.591 4.254 4.254 0 01-.584-2.182zm8.91 6.5a.445.445 0 00-.342.046.554.554 0 00-.235.257l-.606 1.712-1.863-3.394a5.45 5.45 0 001.568-.765 5.24 5.24 0 001.235-1.22l2.045 3.773-1.803-.409z" fill="#626262"/></svg>