<svg width="16" height="16" fill="none" xmlns="http://www.w3.org/2000/svg"><path d="M11.492 1.394c-.515-.252-.878-.43-1.09-.53a6.665 6.665 0 00-1.22-.477 4.336 4.336 0 00-1.144-.16c-1.111 0-2.167.5-3.167 1.5L1.735 4.88C.896 5.717.409 6.58.273 7.469c-.137.89.063 1.87.598 2.94.111.233.283.596.515 1.091.192.404.336.71.432.917.096.207.237.487.424.84.187.354.346.627.478.819.13.192.295.414.492.667a2.9 2.9 0 00.56.568c.177.126.374.235.592.325.217.091.441.137.674.137h.136a2.047 2.047 0 00.977-.364c.127-.09.25-.22.372-.386a8.32 8.32 0 00.31-.455 3.36 3.36 0 00.265-.553c.091-.232.165-.427.22-.583.056-.157.119-.371.19-.644.07-.273.12-.485.151-.636.03-.152.08-.374.152-.667a19.5 19.5 0 01.197-.864c.05-.222.14-.424.272-.606s.359-.434.682-.757l.091-.091.06-.06.137-.137c.162-.162.298-.293.409-.394a4.91 4.91 0 01.326-.273c.106-.08.207-.141.303-.182.096-.04.204-.075.326-.106.181-.05.47-.116.863-.197.374-.09.657-.159.849-.204.192-.046.462-.116.81-.212a6.95 6.95 0 00.81-.265c.193-.081.415-.19.668-.326a2.16 2.16 0 00.583-.432c.136-.152.258-.328.364-.53.106-.202.169-.425.189-.667.02-.242-.01-.48-.091-.712a2.733 2.733 0 00-.303-.621 2.747 2.747 0 00-.553-.576c-.248-.202-.47-.371-.667-.508a8.586 8.586 0 00-.84-.492 24.922 24.922 0 00-.864-.44c-.212-.1-.526-.247-.94-.439zm3.258 3.697a.842.842 0 01-.25.538 2.09 2.09 0 01-.553.417 5.376 5.376 0 01-.841.333c-.348.111-.652.197-.91.258a150.257 150.257 0 01-1.855.424c-.142.04-.275.088-.402.144a3.733 3.733 0 00-.348.174 2.41 2.41 0 00-.341.242 6.87 6.87 0 00-.333.296 17.43 17.43 0 00-.364.356l-.053.053-.046.045-.053.038-.06.068a.282.282 0 01-.076.069c-.242.252-.432.457-.568.613a3.242 3.242 0 00-.379.546c-.116.207-.2.421-.25.644-.05.181-.111.431-.182.75l-.182.825c-.05.233-.116.5-.196.803a6.14 6.14 0 01-.258.78 5.89 5.89 0 01-.303.622c-.111.197-.24.348-.386.455a.992.992 0 01-.463.189h-.075c-.202 0-.41-.08-.622-.243a3.306 3.306 0 01-.583-.575 6.605 6.605 0 01-.576-.894 20.41 20.41 0 01-.522-1 135.1 135.1 0 01-.523-1.099c-.207-.44-.366-.775-.477-1.007-.313-.627-.485-1.205-.516-1.735-.03-.53.054-1.003.25-1.417.197-.414.513-.838.947-1.273.071-.06.37-.358.894-.893.475-.465.92-.91 1.334-1.334l.447-.44c.217-.211.37-.363.462-.454.808-.818 1.631-1.227 2.47-1.227.585 0 1.232.177 1.939.53.232.121.6.298 1.106.53 1.555.728 2.57 1.299 3.045 1.713.465.394.682.772.652 1.136zm-7.258.47h.97v-.97h-.97v.97zm0-1.455h.97v-.97h-.97v.97zm1.455 0h.97v-.97h-.97v.97zm0 1.455h.97v-.97h-.97v.97zM5.235 8.47l.363-.364c.091-.09.137-.2.137-.326a.445.445 0 00-.137-.325.445.445 0 00-.325-.137.445.445 0 00-.326.137l-.379.363-.364-.363a.445.445 0 00-.325-.137.445.445 0 00-.326.137.284.284 0 00-.09.113.72.72 0 00-.046.137.345.345 0 000 .144c.01.05.025.098.045.144.02.045.05.083.091.113l.364.364-.364.379c-.09.09-.136.2-.136.325 0 .127.045.235.136.326.09.091.2.137.326.137a.445.445 0 00.325-.137l.364-.363.379.378c.09.091.202.137.333.137a.453.453 0 00.334-.137c.02-.02.04-.043.06-.068a.268.268 0 00.046-.083.597.597 0 00.022-.273.301.301 0 00-.068-.16 1.194 1.194 0 01-.06-.082l-.38-.38z" fill="#626262"/></svg>