<svg width="14" height="16" fill="none" xmlns="http://www.w3.org/2000/svg"><path d="M7 0C5.823 0 4.737.31 3.742.93c-.995.619-1.784 1.465-2.367 2.537A7.174 7.174 0 00.5 6.95v8.543c0 .104.031.198.094.281.062.083.14.146.234.188a.46.46 0 00.172.03.48.48 0 00.375-.155l1.89-2.093 1.47 2.046a.49.49 0 00.406.203.47.47 0 00.226-.055.609.609 0 00.18-.148l1.469-1.984 1.468 1.984a.45.45 0 00.391.203.542.542 0 00.156-.024.448.448 0 00.14-.07.547.547 0 00.11-.11l1.5-2.03 1.844 2.062a.434.434 0 00.25.164.446.446 0 00.297-.023.587.587 0 00.234-.188.456.456 0 00.094-.281V6.95c0-1.78-.563-3.337-1.688-4.67C10.74 1.02 9.418.281 7.845.062A5.753 5.753 0 007 0zm5.5 14.181l-1.39-1.546a.446.446 0 00-.391-.172.44.44 0 00-.211.055.45.45 0 00-.164.148L8.875 14.65l-1.453-1.984a.449.449 0 00-.39-.203.49.49 0 00-.407.203L5.141 14.65l-1.438-1.984a.195.195 0 00-.055-.062c-.026-.021-.049-.04-.07-.055a.823.823 0 00-.07-.047.243.243 0 00-.086-.031.57.57 0 00-.094-.008h-.031a.462.462 0 00-.36.156L1.5 14.197V6.95c0-1.072.247-2.067.742-2.983a5.726 5.726 0 012.008-2.17A5.065 5.065 0 017 1c.99 0 1.906.265 2.75.796a5.725 5.725 0 012.008 2.171c.495.916.742 1.91.742 2.983v7.231zm-3-8.683a.999.999 0 00-.922 1.39.98.98 0 00.211.32 1.006 1.006 0 00.71.289c.272 0 .506-.1.704-.297a.96.96 0 00.297-.703 1.005 1.005 0 00-.29-.71 1.006 1.006 0 00-.71-.289zm-5 0a.961.961 0 00-.703.296.96.96 0 00-.297.703c0 .27.099.505.297.703a.961.961 0 00.703.297c.27 0 .505-.1.703-.297a.96.96 0 00.211-1.093.906.906 0 00-.094-.172 1.048 1.048 0 00-.258-.258.907.907 0 00-.171-.094 1.32 1.32 0 00-.188-.062.836.836 0 00-.203-.023z" fill="#626262"/></svg>