<svg width="16" height="16" fill="none" xmlns="http://www.w3.org/2000/svg"><path d="M8.212 5.917a2.205 2.205 0 00-1.273.261 2.118 2.118 0 00-.886.927 2.04 2.04 0 00-.175 1.253c.076.425.285.817.6 1.122.313.306.716.509 1.154.583a2.21 2.21 0 001.29-.17 2.13 2.13 0 00.952-.862 2.045 2.045 0 00-.352-2.51 2.184 2.184 0 00-1.31-.604v0zM13.397 8a4.915 4.915 0 01-.051.68l1.521 1.16a.346.346 0 01.082.45l-1.439 2.42a.361.361 0 01-.192.154.373.373 0 01-.25-.004l-1.51-.591a.557.557 0 00-.511.057c-.23.155-.473.292-.725.41a.533.533 0 00-.297.398L9.8 14.7a.36.36 0 01-.125.213.38.38 0 01-.235.087H6.561a.38.38 0 01-.233-.084.361.361 0 01-.127-.206l-.226-1.564a.538.538 0 00-.303-.4 5.255 5.255 0 01-.722-.411.548.548 0 00-.509-.056l-1.51.59a.374.374 0 01-.25.004.362.362 0 01-.192-.153l-1.44-2.42a.345.345 0 01.083-.45l1.286-.982a.527.527 0 00.201-.46 4.337 4.337 0 010-.813.51.51 0 00-.204-.456L1.13 6.158a.345.345 0 01-.08-.447L2.49 3.29a.362.362 0 01.192-.154.374.374 0 01.25.004l1.51.591a.556.556 0 00.511-.057c.23-.155.473-.292.725-.41a.533.533 0 00.297-.398L6.2 1.3a.36.36 0 01.125-.213A.38.38 0 016.56 1h2.878a.38.38 0 01.233.084c.065.052.11.125.127.206l.226 1.564a.538.538 0 00.303.4c.252.118.493.256.722.411a.548.548 0 00.509.056l1.51-.59a.37.37 0 01.442.149l1.44 2.42a.345.345 0 01-.083.45l-1.286.982a.526.526 0 00-.203.46c.011.136.018.272.018.408z" stroke="#646464" stroke-linecap="round" stroke-linejoin="round"/></svg>