<svg width="16" height="16" fill="none" xmlns="http://www.w3.org/2000/svg"><path d="M11.5 14.5H4.47a.48.48 0 00-.352.148.48.48 0 00-.148.352c0 .135.05.253.148.352a.48.48 0 00.352.148h7.03a.48.48 0 00.352-.148A.48.48 0 0012 15a.48.48 0 00-.148-.352.48.48 0 00-.352-.148zm4.39-12.594a.414.414 0 00-.062-.164.628.628 0 00-.11-.125.458.458 0 00-.313-.117h-2.452V1a.494.494 0 00-.5-.5H3.47a.48.48 0 00-.352.148A.48.48 0 002.97 1v.5H.594a.54.54 0 00-.398.195.404.404 0 00-.087.211c-.01.052-.023.128-.039.227-.015.099-.026.27-.03.515a4.63 4.63 0 00.038.72c.031.234.102.494.211.78.11.287.258.545.445.774C1.287 5.609 2.13 5.969 3.266 6a5.253 5.253 0 001.617 2.39 4.704 4.704 0 002.57 1.11v3.484H5.97a.494.494 0 00-.5.5.494.494 0 00.5.5H10a.48.48 0 00.352-.148.48.48 0 00.148-.352.48.48 0 00-.148-.351.48.48 0 00-.352-.149H8.453V9.5a4.718 4.718 0 002.586-1.11A5.253 5.253 0 0012.656 6c.584-.01 1.094-.107 1.532-.29a2.714 2.714 0 001.078-.788c.583-.719.802-1.662.656-2.828a3.39 3.39 0 00-.031-.188zM1.5 4.296c-.344-.426-.495-1.025-.453-1.796h1.922v1.852l.008.164.015.156.016.156.023.156a2.808 2.808 0 01-.898-.218 1.75 1.75 0 01-.633-.47zm10.453-.109c0 .584-.104 1.144-.312 1.68-.209.537-.492 1-.852 1.39-.36.391-.784.701-1.273.93-.49.23-1.005.344-1.547.344-1.104 0-2.047-.424-2.828-1.273-.782-.85-1.172-1.873-1.172-3.07V1.5h7.984v2.688zm2.547.11a1.955 1.955 0 01-.664.476c-.266.12-.58.19-.945.211a5.465 5.465 0 00.062-.796V2.5h2c.032.77-.12 1.37-.453 1.797z" fill="#626262"/></svg>