<svg width="50" height="50" fill="none" xmlns="http://www.w3.org/2000/svg"><path d="M28.125 35.938h-1.563V21.874c0-.423-.154-.79-.463-1.099A1.501 1.501 0 0025 20.313h-3.125c-.423 0-.79.154-1.099.463-.309.31-.463.676-.463 1.099 0 .423.154.79.463 1.099.31.309.676.463 1.099.463h1.563v12.5h-1.563c-.423 0-.79.155-1.099.464-.309.31-.463.676-.463 1.099 0 .423.154.79.463 1.099.31.309.676.464 1.099.464h6.25c.423 0 .79-.155 1.099-.464.309-.31.463-.676.463-1.099 0-.423-.154-.79-.463-1.099a1.501 1.501 0 00-1.099-.464zM25 17.188c.879 0 1.62-.302 2.222-.904.602-.602.903-1.343.903-2.221 0-.88-.301-1.62-.903-2.222-.603-.602-1.343-.903-2.222-.903s-1.62.3-2.222.903c-.602.602-.903 1.343-.903 2.222 0 .878.301 1.619.903 2.221.603.602 1.343.904 2.222.904zM25 0c-2.702 0-5.33.423-7.886 1.27-2.555.846-4.858 2.034-6.909 3.564a26.248 26.248 0 00-5.371 5.371c-1.53 2.05-2.718 4.354-3.564 6.91A24.92 24.92 0 000 25c0 3.385.66 6.624 1.978 9.717C3.296 37.809 5.07 40.47 7.3 42.7c2.23 2.23 4.89 4.004 7.983 5.322A24.527 24.527 0 0025 50c3.385 0 6.624-.66 9.717-1.977 3.092-1.319 5.753-3.093 7.983-5.323 2.23-2.23 4.004-4.89 5.322-7.983A24.527 24.527 0 0050 25c0-2.702-.423-5.33-1.27-7.886-.846-2.555-2.034-4.858-3.564-6.909a26.247 26.247 0 00-5.371-5.371c-2.05-1.53-4.354-2.718-6.91-3.564A24.92 24.92 0 0025 0zm0 46.924a22 22 0 01-6.91-1.099c-2.229-.732-4.24-1.782-6.03-3.15a24.509 24.509 0 01-4.71-4.735c-1.351-1.79-2.393-3.801-3.125-6.03a22 22 0 01-1.1-6.91c0-2.962.578-5.794 1.733-8.496 1.156-2.702 2.71-5.03 4.663-6.983 1.954-1.953 4.281-3.507 6.983-4.663A21.384 21.384 0 0125 3.125c2.962 0 5.794.578 8.496 1.733 2.702 1.156 5.03 2.71 6.982 4.663 1.954 1.954 3.508 4.281 4.664 6.983A21.384 21.384 0 0146.875 25c0 2.962-.578 5.794-1.733 8.496-1.156 2.702-2.71 5.037-4.664 7.007-1.953 1.97-4.28 3.532-6.982 4.687A21.384 21.384 0 0125 46.924z" fill="#E05E66"/></svg>