<svg width="188" height="36" fill="none" xmlns="http://www.w3.org/2000/svg"><path d="M16.456 5.13L16.493 0l1.613 3.303a.961.961 0 00.353.407l10.92 6.336c.636.357.94.832.948 1.412v4.87l-1.37-.005v-4.056c0-.334-.108-.814-.605-1.211L18.536 5.13c-.52-.296-1.343-.388-2.08 0zm2.079 25.74L18.503 36l-1.613-3.303a.96.96 0 00-.352-.407l-10.92-6.336c-.637-.357-.94-.832-.95-1.412v-4.87l1.37.005v4.056c0 .334.109.814.606 1.211l9.812 5.926c.524.297 1.347.388 2.08 0zM6.074 18.927L0 18.923l4.633-2.02.036-4.828c-.005-.837.393-1.54 1.23-2.093l9.55-5.788.388-.242v1.626l-8.922 5.377c-.556.325-.823.845-.809 1.563l-.032 6.41zM28.926 17.1l6.074.005-4.632 2.019-.037 4.829c.005.836-.393 1.54-1.229 2.092l-9.55 5.789-.384.233v-1.618l8.917-5.377c.556-.324.823-.845.81-1.562l.03-6.41z" fill="#fff"/><path d="M27.412 11.399l-8.95-5.387a2.044 2.044 0 00-1.934 0L7.58 11.4c-.515.315-.727.753-.754 1.26v10.677c.022.512.24.946.754 1.261l8.95 5.386a2.045 2.045 0 001.934 0l8.949-5.386c.515-.315.727-.754.754-1.26v-10.68c-.022-.507-.24-.94-.754-1.26zM8.882 21.943c-.715-.31-.729-.937-.263-1.508l.203-.196c.09-.11-.027-.334-.14-.54-.289-1.018 4.407-3.846 5.225-4.043 0 0-1.623 1.207.054 2.691 1.55 1.37 5.202 1.476 5.202 1.476-5.952.005-10.48.315-10.282 2.12zm12.143-3.577c-1.735.091-1.862.826-1.862.826-2.354-.21-3.376-.616-3.376-.616 1.32-1.23 5.315-1.247 8.38-.21.004 0-.42-.142-3.142 0zm-4.103-1.234c-.362.078-1.632.329-2.152.987 0 0-.614-.407-.718-.777-.235-.854.343-1.585.958-1.722 4.99-1.115 10.698 2.71 10.698 2.71-2.531-.992-5.7-1.86-8.786-1.198zm-4.326-1.622s.122-.507-.176-.74c-.497-.388-1.835-.11-1.835-.11 6.915-3.225 14.3.86 16.772 4.14 0 .004-7.936-6.287-14.76-3.29z" fill="#fff"/><path d="M9.514 19.092c-.037-.023-.222.04-.357.27-.186.31-.095.616-.095.616.108-.027.424-.242.452-.384.04-.192.058-.461 0-.502zm40.206-6.526v12.281h-1.5v-12.28h-4.17v-1.43h9.819v1.43H49.72zm6.474 8.633l-1.458 3.641h-1.65l5.57-13.71h.847l5.55 13.71h-1.651l-1.459-3.64h-5.748zm2.882-7.247l-2.34 5.818h4.688l-2.348-5.818zm8.068-2.815h4.325c1.73 0 3.131.443 4.198 1.335 1.067.885 1.6 2.09 1.6 3.605 0 1.11-.305 2.046-.924 2.8-.612.755-1.451 1.292-2.519 1.604.733.311 1.473 1.073 2.227 2.27l1.345 2.096h-1.707l-1.096-1.74c-.548-.864-1.039-1.422-1.459-1.683-.42-.262-1.003-.4-1.75-.414h-2.746v3.837h-1.501v-13.71h.007zm1.494 1.43v7.014h2.938c1.245 0 2.263-.297 3.067-.878.796-.587 1.202-1.465 1.202-2.626 0-1.146-.398-2.024-1.202-2.611-.804-.595-1.822-.892-3.067-.892h-2.938v-.008zM85.486 11c2.02 0 3.713.762 5.072 2.292l-.982.921c-1.102-1.19-2.468-1.784-4.09-1.784-1.502 0-2.76.53-3.793 1.596-1.031 1.066-1.543 2.386-1.543 3.968 0 1.581.512 2.901 1.543 3.968 1.032 1.066 2.299 1.596 3.793 1.596 1.394 0 2.59-.465 3.571-1.393v-3.308h-3.685v-1.197h5.186v5.07c-1.344 1.502-3.038 2.256-5.072 2.256-1.893 0-3.508-.681-4.838-2.045-1.33-1.364-2-3.01-2-4.947 0-1.93.67-3.584 2-4.947C81.978 11.682 83.593 11 85.486 11zm9.761 6.209h6.588v1.429h-6.588v4.78h7.008v1.43h-8.51v-13.71h8.51v1.428h-7.008v4.643zm13.674-4.643v12.281h-1.501v-12.28h-4.17v-1.43h9.819v1.43h-4.148zm16.62 12.281h-2.654v-5.622h-5.208v5.622h-2.654v-13.71h2.654v5.542h5.208v-5.541h2.654v13.71zm14.001-13.71v7.95c0 1.88-.533 3.33-1.593 4.36-1.061 1.023-2.348 1.538-3.864 1.538-1.522 0-2.817-.515-3.87-1.538-1.053-1.023-1.587-2.48-1.587-4.36v-7.95h2.654v7.893c0 1.19.271 2.052.804 2.597.541.544 1.202.812 1.999.812.797 0 1.459-.268 2-.812.54-.544.804-1.408.804-2.597v-7.893h2.653zm13.276 13.71h-1.572l-6.361-8.64v8.64h-2.654v-13.71h1.559l6.374 8.64v-8.64h2.654v13.71zm7.933-11.163v11.163h-2.654V13.684h-3.685v-2.546h10.024v2.546h-3.685zm8.217 2.996h5.82v2.546h-5.82V22.3h6.304v2.546h-8.95v-13.71h8.95v2.547h-6.304v2.995zm8.374-5.543h4.575c1.828 0 3.265.486 4.29 1.458 1.032.973 1.544 2.213 1.544 3.714 0 1.016-.256 1.901-.761 2.648-.506.747-1.217 1.299-2.142 1.668.562.363 1.231 1.168 1.999 2.409l1.153 1.82h-2.981l-.861-1.37c-.541-.835-.961-1.371-1.259-1.604-.299-.232-.776-.355-1.43-.37h-1.48v3.352h-2.654V11.138h.007zm2.654 2.547v5.266h2.17c.925 0 1.665-.225 2.227-.668.562-.442.846-1.102.846-1.98 0-.834-.284-1.48-.853-1.937-.57-.457-1.31-.681-2.22-.681h-2.17z" fill="#fff"/></svg>