<svg width="18" height="18" fill="none" xmlns="http://www.w3.org/2000/svg"><path d="M7.4 5.83c0-.888.72-1.607 1.6-1.607.88 0 1.6.719 1.6 1.607A1.6 1.6 0 019 7.429c-.88 0-1.6-.72-1.6-1.6zM18 1.929V16.07A1.929 1.929 0 0116.071 18H1.93A1.929 1.929 0 010 16.071V1.93A1.93 1.93 0 011.929 0H16.07A1.93 1.93 0 0118 1.929zm-12.258 3.9a3.259 3.259 0 006.516 0 3.258 3.258 0 10-6.517 0zm7.01 3.645c-.184-.366-.694-.675-1.37-.145 0 0-.912.724-2.382.724-1.47 0-2.383-.724-2.383-.724-.675-.53-1.185-.22-1.37.145-.317.647.045.952.86 1.487.695.446 1.655.61 2.274.675l-.518.518c-.731.723-1.426 1.426-1.917 1.916-.707.708.43 1.84 1.142 1.15l1.916-1.925c.731.731 1.434 1.434 1.917 1.925.707.69 1.848-.43 1.149-1.15l-1.917-1.916-.522-.518c.623-.065 1.57-.237 2.258-.675.82-.535 1.177-.844.864-1.487z" fill="#F59231"/></svg>