<svg width="13" height="14" fill="none" xmlns="http://www.w3.org/2000/svg"><path d="M11.964 1.312a2.423 2.423 0 00-.671-.467 1.746 1.746 0 00-.733-.16c-.566 0-1.075.225-1.526.677-.148.14-2.746 2.737-7.793 7.792a.478.478 0 00-.11.173c-.034.14-.378 1.292-1.035 3.459a.397.397 0 00.111.406.08.08 0 00.037.037c.016.008.03.017.043.025a.402.402 0 00.092.043l.05.012.049.006c.05 0 .09-.008.123-.024 1.732-.567 2.864-.928 3.398-1.084a.362.362 0 00.172-.098L8.64 7.683A474.902 474.902 0 0012 4.341c.485-.5.723-1.018.715-1.551-.017-.526-.267-1.018-.751-1.478zM8.91 2.617c.41.099.796.329 1.157.69.148.147.273.316.375.504.103.19.168.33.197.425.029.095.051.183.068.265a7789.742 7789.742 0 01-6.511 6.449A3.357 3.357 0 002.36 9.168l.013-.013.012-.012.012-.012v-.013h.013l.012-.012.012-.012V9.08h.013l.012-.012.012-.012v-.013h.012l.013-.012.012-.012v-.012h.012l.013-.013.012-.012.012-.012v-.013h.013l.012-.012.012-.012V8.92h.013l.012-.012.012-.012.013-.013v-.012h.012l.012-.012.012-.012.013-.013v-.012l.012-.012h.012l.013-.013.012-.012.012-.012V8.76l.013-.012h.012l.012-.012.013-.013.012-.012V8.7l.012-.013h.012l.013-.012.012-.012.012-.012.013-.013v-.012l.012-.012h.012l.013-.013.012-.012.012-.012.013-.013.012-.012V8.54h.012l.013-.013.012-.012.012-.012.012-.013.013-.012.012-.012v-.012l.012-.013h.013l.012-.012.012-.012.013-.013.012-.012.012-.012.013-.013.012-.012v-.012l.012-.013h.012l.013-.012.012-.012.012-.012.013-.013.012-.012.012-.012.013-.013.012-.012.012-.012v-.013l.013-.012.012-.012h.012l.013-.013.012-.012.012-.012.012-.013.013-.012.012-.012.012-.012.013-.013.012-.012.012-.012.013-.013v-.012l.012-.012.012-.013.013-.012h.012l.012-.012.012-.013.013-.012.012-.012.012-.012.013-.013.012-.012.012-.012.013-.013.012-.012.012-.012.013-.013.012-.012.012-.012.013-.013.012-.012.012-.012.012-.013.013-.012v-.012l.012-.012.012-.013.013-.012.012-.012.012-.013.013-.012.012-.012.012-.013.013-.012h.012l.012-.012.013-.013.012-.012.012-.012.012-.012.013-.013.012-.012.012-.012L4 7.529l.012-.012.012-.012.013-.013.012-.012.012-.012.013-.013.012-.012.012-.012.012-.013.013-.012.012-.012.012-.012.013-.013.012-.012.012-.012.025-.025.012-.012.013-.013.012-.012.012-.012.013-.013.012-.012.012-.012.012-.013.013-.012.012-.012.012-.012.013-.013.012-.024.012-.013.013-.012.012-.012.012-.013.025-.012.012-.012.012-.013.013-.012.012-.012.012-.012.013-.013L4.528 7l.012-.012.013-.013.012-.012.012-.025.013-.012.012-.012.025-.013.012-.012.012-.012.012-.013.013-.012.012-.012.012-.012.013-.013.012-.012.012-.025.013-.012.012-.012.025-.013.012-.012.012-.012.012-.013.013-.012.012-.012.012-.012.013-.025.012-.012.012-.013.025-.012.012-.012.013-.013.012-.012.012-.012.013-.013.012-.012.012-.025.012-.012.025-.012.012-.012.013-.013.012-.012.012-.012.013-.013.012-.024.012-.013.013-.012.024-.012.013-.013.012-.012.012-.012.012-.012.013-.025.012-.012.012-.013.025-.012.012-.012.013-.013.012-.012.012-.012.013-.025.012-.012.024-.013.013-.012.012-.012.012-.012.013-.013.012-.024.012-.013.025-.012.012-.012.013-.013.012-.012.012-.012.012-.025.013-.012.024-.012.013-.013.012-.012.012-.012.013-.013.012-.024.012-.013.025-.012.012-.012.013-.013.012-.012.012-.012.012-.025.013-.012.024-.012.013-.013.012-.012.012-.012.013-.025.012-.012.025-.013.012-.012.012-.012.013-.013.012-.024.012-.013.025-.012.012-.012.012-.012.013-.013.012-.024.012-.013.025-.012.012-.012.013-.013.012-.012.012-.025.012-.012.025-.012.012-.012.013-.013.012-.012.012-.025.013-.012.024-.012.013-.013.012-.012.012-.012.013-.025.012-.012.024-.013.013-.012.012-.012.012-.012.013-.025.024-.012.013-.013.012-.012.012-.012.013-.025.012-.012.024-.013.013-.012.012-.012.012-.012.013-.025.024-.012.013-.013.012-.012.012-.012.013-.025.012-.012.025-.013.012-.012.012-.012.012-.013.013-.024.024-.012.013-.013.012-.012.012-.012.013-.025.012-.012.025-.013.012-.012.012-.012.013-.013.012-.024.024-.012.013-.013.012-.012.012-.012.013-.025.012-.012.025-.013.012-.012.012-.012.013-.013.012-.024.024-.013.013-.012.012-.012.012-.012.013-.025.012-.012.025-.013.012-.012.012-.012.013-.013.012-.024.024-.013.013-.012.012-.012.012-.012.013-.025.012-.012.025-.013.012-.012.012-.012.013-.013.012-.024.025-.013.012-.012.012-.012.012-.013.013-.024.012-.012.025-.013.012-.012.012-.012.013-.013.012-.024.012-.013.025-.012.012-.012.013-.013.012-.012.012-.025.025-.012.012-.012.012-.012.013-.013.012-.024.012-.013.025-.012.012-.012.013-.013.012-.012.012-.025.012-.012.025-.012.012-.012.013-.013.012-.012.012-.012.013-.025.012-.012.025-.013.012-.012.012-.012.013-.013.012-.024.012-.013.025-.012.012-.012.012-.012.013-.013.012-.012.012-.025L8 3.516l.024-.012.013-.013.012-.012.012-.012.012-.013.013-.024.012-.012.025-.013.012-.012.012-.012.013-.013.012-.012.012-.025.013-.012.012-.012.025-.013.012-.012.012-.012.012-.013.013-.012.012-.024.012-.013.013-.012.024-.012.013-.013.012-.012.012-.012.013-.013.012-.012.012-.025.013-.012.012-.012.012-.012.025-.013.012-.012.012-.012.013-.013L8.529 3l.012-.012.013-.013.012-.012.012-.025.013-.012.012-.012.012-.013.025-.012.012-.012.012-.012.013-.013.012-.012.012-.012.013-.013.012-.012.012-.012.013-.013.012-.012.012-.012.012-.013.013-.012.012-.012.012-.012.013-.025.012-.012.012-.013.013-.012.012-.012.025-.013zM1.82 9.831c.402.107.78.337 1.132.69.28.279.476.607.591.985-.164.057-.556.188-1.175.393l-1.336.444c.074-.246.21-.675.406-1.287.197-.611.324-1.02.382-1.225zm9.602-6.056c0 .008-.004.016-.012.024l-.025.025-.037.037a3.267 3.267 0 00-.714-1.12 3.483 3.483 0 00-1.096-.752l.037-.036.025-.025c.041-.041.092-.086.154-.135.061-.05.172-.111.332-.185a1.042 1.042 0 01.911-.012c.144.065.281.164.413.295.164.156.289.312.375.468a.94.94 0 01.13.455c0 .304-.165.624-.493.96z" fill="#646464"/></svg>