<svg width="16" height="16" fill="none" xmlns="http://www.w3.org/2000/svg"><path d="M14.127 10.774V2.977a.091.091 0 00-.026-.064.086.086 0 00-.062-.026s0 0 0 0H1.961h0m12.165 7.887L1.825 2.977a.14.14 0 01.04-.099.136.136 0 01.097-.04v.05m12.165 7.886L12.01 8.622h0a1.004 1.004 0 00-1.43 0h0l-1.42 1.443 4.967.71zM1.962 2.887a.086.086 0 00-.062.026.09.09 0 00-.025.064m.087-.09l-.087.09m0 0s0 0 0 0v6.681l2.666-2.71h0a1.004 1.004 0 011.43 0h0l3.067 3.117h0M1.874 2.977L9.195 10.1a.136.136 0 01-.194 0l.036-.035m0 0a.086.086 0 00.122 0h-.122zm5.002-8.115h0H1.961h0c-.269 0-.526.109-.715.301-.19.193-.296.454-.296.726v10.046h0c0 .272.107.533.296.726.19.192.446.3.715.301h12.078c.268 0 .526-.109.715-.301.19-.193.296-.454.296-.726v0V2.977v0c0-.272-.107-.533-.296-.726a1.004 1.004 0 00-.715-.301zm-5.656 8.777h0a1.004 1.004 0 001.43 0h0l1.42-1.443a.086.086 0 01.123 0l2.77 2.817v.922a.086.086 0 01-.087.09H1.961a.086.086 0 01-.062-.026.09.09 0 01-.025-.064v-2.038l3.32-3.376s0 0 0 0a.086.086 0 01.122 0s0 0 0 0l3.067 3.118zm.834-4.464a.733.733 0 00.987.474.74.74 0 00.33-.275.756.756 0 00-.203-1.037.729.729 0 00-.979.148.753.753 0 00-.135.69z" fill="#646464" stroke="#646464" stroke-width=".1"/></svg>