<svg width="14" height="11" fill="none" xmlns="http://www.w3.org/2000/svg"><path d="M12.5.125h-11A.876.876 0 00.625 1v9a.876.876 0 00.875.875h11a.876.876 0 00.875-.875V1A.876.876 0 0012.5.125zm-11 .75h11a.125.125 0 01.125.125v7.095l-2.006-2.007a.876.876 0 00-1.238 0L8.088 7.381a.125.125 0 01-.176 0L5.119 4.588a.876.876 0 00-1.238 0L1.375 7.095V1A.125.125 0 011.5.875zm11 9.25h-11A.125.125 0 011.375 10V8.155L4.412 5.12a.125.125 0 01.176 0l2.793 2.793a.876.876 0 001.238 0L9.912 6.62a.125.125 0 01.176 0l2.537 2.536V10a.125.125 0 01-.125.125zM8.308 4.192a.625.625 0 111.067-.442.625.625 0 01-1.067.442z" fill="#545454"/></svg>