<svg width="16" height="13" fill="none" xmlns="http://www.w3.org/2000/svg"><path d="M15.898 9.48L12.42 12.9l-.006.005a.346.346 0 01-.047.037c-.009.006-.019.01-.028.015a.204.204 0 01-.068.028l-.029.008a.344.344 0 01-.136 0l-.03-.008a.346.346 0 01-.035-.011.359.359 0 01-.033-.017l-.027-.015a.353.353 0 01-.053-.042L8.45 9.479a.34.34 0 010-.484.35.35 0 01.492 0l2.884 2.837V4.447a.34.34 0 01.102-.242.35.35 0 01.492 0 .339.339 0 01.102.242v7.385l2.884-2.837a.35.35 0 01.492 0 .34.34 0 010 .484zm-9.29-4.006H.349a.35.35 0 00-.246.1.34.34 0 000 .484.35.35 0 00.246.1h6.26a.35.35 0 00.247-.1.34.34 0 000-.484.35.35 0 00-.246-.1zM.349.684h11.826a.35.35 0 00.246-.1.339.339 0 000-.484.35.35 0 00-.246-.1H.348a.35.35 0 00-.246.1.34.34 0 000 .484.35.35 0 00.246.1zm4.87 10.263H.347a.351.351 0 00-.246.1.34.34 0 000 .484.35.35 0 00.246.1h4.87a.35.35 0 00.245-.1.34.34 0 000-.483.351.351 0 00-.246-.1z" fill="#646464"/></svg>