<svg width="16" height="16" fill="none" xmlns="http://www.w3.org/2000/svg"><path d="M2.864 15.502c-.677 0-1.278-.262-1.803-.787a2.746 2.746 0 01-.834-2.018c0-.791.278-1.464.834-2.019l8.712-9.224A3.068 3.068 0 0111.31.577a3.21 3.21 0 011.765.106c.596.202 1.146.55 1.651 1.044.162.171.31.36.447.567.137.206.248.423.334.65a4.256 4.256 0 01.265 1.474c-.02 1.069-.384 1.96-1.091 2.677L8.09 14.08a.457.457 0 01-.333.158.452.452 0 01-.341-.128.474.474 0 01-.152-.34.485.485 0 01.129-.356l6.59-6.986c.536-.544.809-1.22.82-2.026.01-.806-.248-1.467-.774-1.98a3.37 3.37 0 00-1.075-.757 2.354 2.354 0 00-1.273-.166c-.455.06-.859.267-1.212.62l-8.712 9.224c-.374.373-.561.821-.561 1.345s.187.973.56 1.346c.172.171.36.3.561.386.202.085.414.118.637.098.444-.02.858-.227 1.242-.62l6.924-7.349a2.161 2.161 0 00.288-.355 1.186 1.186 0 00.182-.499.5.5 0 00-.045-.265.858.858 0 00-.182-.257c-.192-.201-.38-.292-.56-.272-.193.02-.41.146-.652.378l-5.213 5.534a.512.512 0 01-.212.129.466.466 0 01-.25.007.45.45 0 01-.22-.12.43.43 0 01-.15-.333c0-.131.045-.247.135-.348l5.213-5.55c.414-.403.833-.624 1.257-.665.485-.04.93.141 1.334.545.383.373.553.811.507 1.315-.045.504-.29.978-.735 1.422l-6.924 7.363c-.566.565-1.197.867-1.894.908a.347.347 0 00-.068.007.355.355 0 01-.068.008z" fill="#626262"/></svg>