<svg width="11" height="14" fill="none" xmlns="http://www.w3.org/2000/svg"><path d="M10.116 2.654H7.418v-1.07a.9.9 0 00-.443-.782.876.876 0 00-.444-.117H4.47a.861.861 0 00-.624.258.86.86 0 00-.263.64v1.071H.884a.364.364 0 00-.27.117.384.384 0 00-.114.277c0 .107.038.2.114.277a.364.364 0 00.27.117h.527l.888 9.11a.856.856 0 00.27.542.768.768 0 00.545.221h4.772c.208 0 .39-.074.546-.221a.805.805 0 00.257-.542l.9-9.11h.527a.35.35 0 00.186-.055.437.437 0 00.144-.142.363.363 0 00.054-.197.384.384 0 00-.114-.277.364.364 0 00-.27-.117zM4.35 1.584c0-.083.04-.124.12-.124h2.06c.08 0 .12.041.12.123v1.071h-2.3v-1.07zm3.585 10.894c-.008.033-.024.05-.048.05H3.114c-.024 0-.04-.017-.048-.05l-.875-9.036h6.618l-.875 9.036z" fill="#E05E66"/></svg>