<svg width="14" height="16" fill="none" xmlns="http://www.w3.org/2000/svg"><path d="M12.833 2.652H9.424V1.333c0-.202-.05-.389-.151-.56a1.077 1.077 0 00-.41-.402 1.13 1.13 0 00-.56-.144H5.697c-.303 0-.566.106-.788.318a1.045 1.045 0 00-.333.788v1.319h-3.41a.466.466 0 00-.34.143.466.466 0 00-.144.341c0 .132.048.245.144.341.096.096.21.144.34.144h.667l1.122 11.212c.03.263.144.485.34.667a.984.984 0 00.69.273h6.03a.985.985 0 00.69-.273.98.98 0 00.325-.667l1.137-11.212h.666a.45.45 0 00.235-.068.547.547 0 00.182-.174.439.439 0 00.068-.243.466.466 0 00-.144-.34.466.466 0 00-.34-.144zM5.546 1.333c0-.1.05-.151.151-.151h2.606c.101 0 .152.05.152.151v1.319h-2.91V1.333zm4.53 13.41c-.01.04-.03.06-.06.06H3.984c-.03 0-.05-.02-.06-.06L2.817 3.62h8.364l-1.106 11.121z" fill="#626262"/></svg>