<svg width="18" height="18" fill="none" xmlns="http://www.w3.org/2000/svg"><g clip-path="url(#clip0_56:703)"><rect width="18" height="18" rx="9" fill="#fff"/><path d="M11.762 0H6.237C1.194 0-.001 1.195-.001 6.238v5.525c0 5.042 1.195 6.238 6.238 6.238h5.525C16.804 18 18 16.805 18 11.763V6.238C18 1.195 16.793 0 11.762 0zm2.769 12.84h-1.307c-.495 0-.648-.392-1.538-1.294-.773-.75-1.116-.85-1.307-.85-.269 0-.345.076-.345.446v1.18c0 .317-.1.508-.938.508-1.386 0-2.924-.839-4.002-2.4-1.627-2.288-2.072-4.002-2.072-4.357 0-.19.076-.369.443-.369h1.31c.33 0 .456.153.585.507.648 1.87 1.726 3.507 2.17 3.507.165 0 .241-.076.241-.495v-1.93c-.05-.891-.519-.968-.519-1.284 0-.152.126-.305.328-.305h2.06c.278 0 .38.153.38.48V8.79c0 .281.127.38.203.38.164 0 .304-.099.609-.404.94-1.054 1.614-2.68 1.614-2.68.088-.191.24-.37.572-.37h1.309c.393 0 .48.203.393.484-.165.761-1.767 3.023-1.767 3.023-.138.229-.19.328 0 .583.14.19.598.586.902.94.56.636.99 1.17 1.105 1.538.129.367-.062.557-.431.557h.002z" fill="#2F8AF2"/></g><defs><clipPath id="clip0_56:703"><path fill="#fff" d="M0 0h18v18H0z"/></clipPath></defs></svg>